<?xml version="1.0" encoding="iso-8859-1"?>
<!-- Generator: Adobe Illustrator 19.0.0, SVG Export Plug-In . SVG Version: 6.00 Build 0)  -->
<svg version="1.1" xmlns="http://www.w3.org/2000/svg" xmlns:xlink="http://www.w3.org/1999/xlink" x="0px" y="0px"
	 viewBox="0 0 128 128" style="enable-background:new 0 0 128 128;" xml:space="preserve">
<g id="_x31_">
	<polygon id="XMLID_113_" style="fill:#FCC48D;" points="104.712,46.889 99.944,46.889 99.944,33.306 92.569,44.713 88.564,42.124 
		95.199,31.863 84.488,37.744 82.193,33.564 93.031,27.613 80.667,27.613 80.667,22.845 94.249,22.845 82.843,15.47 85.432,11.465 
		95.693,18.099 89.812,7.39 93.992,5.094 99.944,15.934 99.944,3.568 104.712,3.568 104.712,17.149 112.086,5.744 116.09,8.333 
		109.456,18.594 120.167,12.713 122.462,16.893 111.622,22.845 123.988,22.845 123.988,27.613 110.407,27.613 121.812,34.987 
		119.223,38.991 108.961,32.356 114.843,43.067 110.663,45.363 104.712,34.525 	"/>
	<path id="XMLID_102_" style="fill:#F98C22;" d="M102.328,49.273c-13.585,0-24.637-11.052-24.637-24.637S88.743,0,102.328,0
		s24.637,11.052,24.637,24.637S115.913,49.273,102.328,49.273z M102.328,4.768c-10.955,0-19.868,8.913-19.868,19.868
		s8.913,19.868,19.868,19.868s19.868-8.913,19.868-19.868S113.283,4.768,102.328,4.768z"/>
	<path id="XMLID_93_" style="fill:#FCC48D;" d="M103.456,27.355l-14.75,14.75H20.232l-14.75-14.75
		c-1.001-1.001-0.302-2.718,1.113-2.718h95.733C103.742,24.637,104.457,26.353,103.456,27.355z"/>
	<path id="XMLID_54_" d="M103.547,29.041c1.14-1.141,1.478-2.841,0.861-4.331c-0.618-1.489-2.058-2.452-3.671-2.452L5.011,22.259
		c-1.613,0-3.053,0.962-3.671,2.452C0.723,26.2,1.061,27.9,2.201,29.042L50.49,77.33v45.902H29.032
		c-1.317,0-2.384,1.067-2.384,2.384c0,1.317,1.067,2.384,2.384,2.384h47.684c1.317,0,2.384-1.067,2.384-2.384
		c0-1.317-1.067-2.384-2.384-2.384H55.258V77.33L103.547,29.041z M98.819,27.026L85.33,40.516H20.418L6.93,27.027L98.819,27.026z
		 M52.874,72.971L23.597,43.694h58.554L52.874,72.971z"/>
</g>
<g id="Layer_1">
</g>
</svg>
