<?xml version="1.0" standalone="no"?>
<!DOCTYPE svg PUBLIC "-//W3C//DTD SVG 20010904//EN"
 "http://www.w3.org/TR/2001/REC-SVG-20010904/DTD/svg10.dtd">
<svg version="1.0" xmlns="http://www.w3.org/2000/svg"
 width="700.000000pt" height="700.000000pt" viewBox="0 0 700.000000 700.000000"
 preserveAspectRatio="xMidYMid meet">
<metadata>
Created by potrace 1.14, written by Peter Selinger 2001-2017
</metadata>
<g transform="translate(0.000000,700.000000) scale(0.100000,-0.100000)"
fill="#000000" stroke="none">
<path d="M5445 6993 c-559 -69 -1016 -469 -1154 -1010 -11 -43 -23 -103 -27
-133 -3 -30 -8 -58 -10 -61 -2 -3 -907 -6 -2012 -6 -1987 0 -2009 -1 -2053
-20 -57 -26 -95 -68 -118 -129 -20 -56 -19 -98 6 -155 13 -29 383 -406 1348
-1370 l1330 -1330 5 -97 c3 -53 4 -620 2 -1259 l-2 -1163 -604 0 -603 0 -34
-23 c-60 -41 -77 -113 -39 -174 41 -68 -63 -64 1424 -61 l1344 3 27 25 c53 50
63 95 34 157 -36 76 -10 73 -688 73 l-600 0 0 1255 1 1255 893 893 893 893 64
-38 c168 -103 303 -156 475 -188 35 -6 75 -13 90 -16 66 -13 311 -6 391 11
445 91 780 344 977 736 40 78 100 252 110 314 3 22 7 47 10 55 16 59 22 292
10 375 -24 166 -63 300 -123 425 -182 381 -529 654 -942 741 -99 20 -336 33
-425 22z m21 -559 c0 -161 -3 -290 -7 -286 -9 8 -279 499 -279 506 0 5 116 45
151 51 13 3 38 9 54 13 17 5 41 9 55 10 l25 1 1 -295z m351 282 c79 -17 145
-38 220 -72 l53 -23 -68 -103 c-37 -57 -83 -128 -102 -158 -19 -30 -38 -59
-43 -65 -4 -5 -39 -59 -78 -119 -38 -61 -69 -106 -70 -100 -1 12 -1 614 0 637
1 21 2 21 88 3z m-766 -374 c50 -92 105 -192 122 -222 17 -30 37 -66 46 -79
20 -31 14 -28 -105 47 -54 35 -108 69 -119 75 -11 7 -22 14 -25 17 -3 3 -53
36 -112 74 -60 37 -108 71 -108 75 0 11 109 125 154 160 21 17 42 28 46 26 5
-3 50 -81 101 -173z m1315 76 c79 -82 128 -148 118 -158 -10 -9 -481 -270
-489 -270 -4 0 28 52 160 255 29 44 73 113 99 153 25 39 49 72 54 72 4 0 30
-24 58 -52z m-1625 -400 c63 -41 156 -101 207 -134 51 -32 106 -69 123 -80
l29 -21 -291 0 -291 0 6 42 c12 77 16 93 42 167 14 40 28 81 31 91 7 23 9 23
144 -65z m1891 -40 c18 -59 35 -134 43 -190 l5 -38 -288 0 -287 0 175 96 c96
53 209 116 250 139 41 24 78 44 81 44 3 1 12 -23 21 -51z m33 -520 c-11 -61
-35 -147 -56 -195 -40 -95 -44 -103 -52 -103 -4 0 -76 44 -158 98 -83 53 -158
102 -167 107 -34 20 -167 109 -176 117 -6 4 130 8 302 8 l312 0 -5 -32z m-599
-296 c49 -32 147 -96 217 -141 126 -83 127 -84 110 -104 -33 -38 -49 -53 -112
-105 l-64 -53 -13 23 c-7 13 -16 30 -20 38 -4 8 -36 66 -71 127 -34 62 -63
115 -63 117 0 2 -18 36 -40 75 -38 67 -44 81 -36 81 2 0 43 -26 92 -58z m-600
-284 c0 -161 -4 -296 -9 -299 -11 -8 -155 25 -227 52 -30 11 -63 23 -72 26
-10 3 -18 8 -18 12 0 3 37 63 83 133 45 70 117 182 160 248 42 66 79 120 80
120 1 0 3 -132 3 -292z m394 -8 c61 -113 116 -210 121 -216 10 -12 -13 -24
-81 -45 -58 -17 -170 -37 -171 -30 0 3 -1 124 -2 267 -2 193 1 257 9 245 6 -9
62 -108 124 -221z m-2166 -1059 c-766 -767 -800 -799 -818 -783 -37 33 -1576
1574 -1576 1578 0 2 718 4 1597 4 l1596 0 -799 -799z"/>
</g>
</svg>
